<?xml version="1.0" standalone="no"?>
<!DOCTYPE svg PUBLIC "-//W3C//DTD SVG 1.1//EN" "http://www.w3.org/Graphics/SVG/1.1/DTD/svg11.dtd" >
<!--
2013-9-30: Created.
-->
<svg>
<metadata>
Created by iconfont
</metadata>
<defs>

<font id="iconfont" horiz-adv-x="1024" >
  <font-face
    font-family="iconfont"
    font-weight="500"
    font-stretch="normal"
    units-per-em="1024"
    ascent="896"
    descent="-128"
  />
    <missing-glyph />
    
    <glyph glyph-name="x" unicode="x" horiz-adv-x="1001"
d="M281 543q-27 -1 -53 -1h-83q-18 0 -36.5 -6t-32.5 -18.5t-23 -32t-9 -45.5v-76h912v41q0 16 -0.5 30t-0.5 18q0 13 -5 29t-17 29.5t-31.5 22.5t-49.5 9h-133v-97h-438v97zM955 310v-52q0 -23 0.5 -52t0.5 -58t-10.5 -47.5t-26 -30t-33 -16t-31.5 -4.5q-14 -1 -29.5 -0.5
t-29.5 0.5h-32l-45 128h-439l-44 -128h-29h-34q-20 0 -45 1q-25 0 -41 9.5t-25.5 23t-13.5 29.5t-4 30v167h911zM163 247q-12 0 -21 -8.5t-9 -21.5t9 -21.5t21 -8.5q13 0 22 8.5t9 21.5t-9 21.5t-22 8.5zM316 123q-8 -26 -14 -48q-5 -19 -10.5 -37t-7.5 -25t-3 -15t1 -14.5
t9.5 -10.5t21.5 -4h37h67h81h80h64h36q23 0 34 12t2 38q-5 13 -9.5 30.5t-9.5 34.5q-5 19 -11 39h-368zM336 498v228q0 11 2.5 23t10 21.5t20.5 15.5t34 6h188q31 0 51.5 -14.5t20.5 -52.5v-227h-327z" />
    

    
    <glyph glyph-name="zhenduan" unicode="&#58917;" d="M959.655 434.469v69.474c0 29.412-25.059 53.258-55.98 53.258h-187.894v121.499h-81.079v40.342h-244.55v-81.478h243.914v-80.364h-244.212v121.5h-80.841v-121.499h-188.989c-30.901 0-55.961-23.847-55.961-53.258v-585.92c0-4.058 0.494-8.005 1.401-11.804h40.351v-39.675c4.538-1.131 9.298-1.738 14.209-1.738h783.651c5.171 0 10.171 0.679 14.924 1.929v39.484h39.655c0.907 3.799 1.401 7.745 1.401 11.804v476.381h-895.154v40.062h895.154zM308.992 190.118h162.119v122.096h81.696v-122.096h163.252v-81.001h-163.252v-122.732h-81.696v122.731h-162.119v81.002z"  horiz-adv-x="1024" />

    
    <glyph glyph-name="yuankongxin" unicode="&#58901;" d="M512.001023 658.495884c-197.665919 0-358.496907-160.830989-358.496907-358.49486 0-197.665919 160.830989-358.496907 358.496907-358.496907 197.663872 0 358.49486 160.830989 358.49486 358.496907C870.495884 497.664895 709.664895 658.495884 512.001023 658.495884zM512.001023-20.534294c-176.753633 0-320.535317 143.783731-320.535317 320.535317s143.781684 320.53327 320.535317 320.53327c176.751586 0 320.53327-143.781684 320.53327-320.53327S688.75261-20.534294 512.001023-20.534294z"  horiz-adv-x="1024" />

    
    <glyph glyph-name="jiaolian" unicode="&#58888;" d="M657.52284 281.098511c48.095391 42.647309 78.850859 107.351983 78.850859 179.918719 0 128.572284-96.55815 232.67834-215.598336 232.67834-119.143541 0-215.70169-104.158245-215.70169-232.67834 0-64.496943 24.364921-122.967636 63.710021-165.04087C373.655653 291.31827 510.821663 164.522446 657.52284 281.098511L657.52284 281.098511zM802.128285 120.143703 684.92391 226.923658c-44.010353-36.049031-168.653141-112.069425-341.028047 2.726088-51.869345-39.925315-190.499705-154.564261-175.097924-231.894488 0 0 2.726088-80.634482 149.322887-84.563978 0 0 436.902628-32.274054 509.574764 42.912345C827.591213-43.845209 906.966005 7.291448 802.128285 120.143703L802.128285 120.143703z"  horiz-adv-x="1024" />

    
    <glyph glyph-name="yanjing" unicode="&#58918;" d="M840.277333 492.426667c-91.114667 54.72-207.701333 84.906667-328.277333 84.906667s-237.141333-30.186667-328.277333-84.906667c-89.664-53.930667-141.056-124.074667-141.056-192.448 0-68.373333 51.370667-138.496 140.949333-192.426667 91.136-54.741333 207.722667-84.885333 328.298667-84.885333 120.512 0 237.12 30.144 328.362667 84.885333 89.664 53.930667 141.056 124.053333 141.056 192.426667C981.333333 368.416 929.92 438.56 840.277333 492.426667zM818.752 140.618667c-84.842667-51.008-193.770667-79.061333-306.752-79.061333s-221.909333 28.053333-306.752 79.061333c-76.394667 45.888-122.005333 105.450667-122.005333 159.36s45.589333 113.450667 121.92 159.381333c84.842667 51.008 193.770667 79.061333 306.752 79.061333 112.917333 0 221.888-28.053333 306.837333-79.061333 76.394667-45.888 122.005333-105.450667 122.005333-159.381333C940.757333 246.090667 895.146667 186.528 818.752 140.618667zM512 449.333333c-82.346667 0-149.333333-67.008-149.333333-149.333333s66.986667-149.333333 149.333333-149.333333c82.325333 0 149.333333 67.008 149.333333 149.333333S594.325333 449.333333 512 449.333333zM512 185.76c-62.997333 0-114.218667 51.242667-114.218667 114.24s51.221333 114.24 114.218667 114.24 114.218667-51.242667 114.218667-114.24S574.997333 185.76 512 185.76zM465.301333 361.205333c-19.370667-16.725333-30.122667-40.96-29.504-66.474667 0.170667-8.021333 6.784-14.464 14.784-14.464 0.085333 0 0.170667 0 0.448 0.106667 8.192 0.170667 14.634667 6.933333 14.442667 15.146667-0.448 16.618667 6.613333 32.469333 19.2 43.306667 6.165333 5.290667 6.869333 14.698667 1.493333 20.885333C480.896 365.877333 471.466667 366.581333 465.301333 361.205333z"  horiz-adv-x="1024" />

    
    <glyph glyph-name="delete" unicode="&#58883;" d="M240 632 180 572 452 300 180 28 240-32 512 240 784-32 844 28 572 300 844 572 784 632 512 360 240 632z"  horiz-adv-x="1024" />

    
    <glyph glyph-name="duihao" unicode="&#58929;" d="M918.016 597.219556 410.055111 91.079111C398.904889 79.985778 384.284444 74.695111 369.664 74.979556 355.043556 74.695111 340.423111 79.985778 329.272889 91.079111L106.154667 313.400889C84.366222 335.132444 84.366222 370.346667 106.154667 392.078222 127.943111 413.809778 163.328 413.809778 185.116444 392.078222L369.664 208.156444 838.997333 675.896889C860.842667 697.628444 896.170667 697.628444 918.016 675.896889 939.804444 654.165333 939.804444 618.951111 918.016 597.219556Z"  horiz-adv-x="1024" />

    
    <glyph glyph-name="duigou" unicode="&#58919;" d="M906.755835 691.14439c-12.825888 0-24.411086-5.289708-32.711431-13.798112l-0.039311 0.039311L382.806292 185.64794 152.590382 416.792929l-0.069034-0.067116c-8.372255 9.401049-20.561498 15.326442-34.140045 15.326442-25.245243 0-45.710861-20.465618-45.710861-45.710861 0-13.51239 5.866906-25.650816 15.188375-34.019236l-0.050816-0.050816 262.514097-263.56782c0.059446-0.060404 0.113139-0.123685 0.173543-0.183131 8.286921-8.385678 19.794457-13.582382 32.514876-13.582382 12.733843 0 24.252884 5.20821 32.540764 13.606352l522.539146 523.625468c8.845903 8.33582 14.37627 20.150172 14.37627 33.2637C952.467655 670.678772 932.001079 691.14439 906.755835 691.14439z"  horiz-adv-x="1024" />

    
    <glyph glyph-name="fangxingweixuanzhong" unicode="&#59168;" d="M832-32.00086l-640 0c-52.9288 0-96.00086 43.07206-96.00086 95.99914l0 640c0 52.9288 43.07206 96.00086 96.00086 96.00086l640 0c52.92708 0 95.99914-43.07206 95.99914-96.00086l0-640C928.00086 11.0712 884.9288-32.00086 832-32.00086zM192 735.99914c-17.632039 0-32.00086-14.368821-32.00086-32.00086l0-640c0-17.664722 14.368821-31.99914 32.00086-31.99914l640 0c17.664722 0 31.99914 14.336138 31.99914 31.99914l0 640c0 17.632039-14.336138 32.00086-31.99914 32.00086L192 735.99914z"  horiz-adv-x="1024" />

    
    <glyph glyph-name="fangxingxuanzhong" unicode="&#59170;" d="M726.976697 502.815858c-12.54369 12.447359-32.831716 12.320065-45.248112-0.25631L448.447252 266.751243l-103.26354 106.112189c-12.352748 12.703669-32.60809 12.927295-45.248112 0.639914-12.672705-12.320065-12.959978-32.60809-0.639914-45.248112l126.016611-129.503454c0.063647-0.096331 0.192662-0.096331 0.25631-0.192662 0.063647-0.063647 0.096331-0.192662 0.159978-0.25631 2.016073-1.983389 4.512082-3.19957 6.880796-4.544765 1.247144-0.672598 2.239699-1.792447 3.519527-2.303346 3.872168-1.599785 8.000645-2.399677 12.096439-2.399677 4.06483 0 8.12794 0.799892 11.967424 2.33603 1.247144 0.512619 2.208735 1.536138 3.392232 2.176052 2.399677 1.343475 4.895686 2.528692 6.944443 4.544765 0.063647 0.063647 0.096331 0.192662 0.192662 0.25631 0.063647 0.096331 0.159978 0.127295 0.25631 0.192662l256.223626 259.008628C739.647682 470.111437 739.520387 490.368499 726.976697 502.815858zM832-32.00086l-640 0c-52.9288 0-96.00086 43.07206-96.00086 95.99914l0 640c0 52.9288 43.07206 96.00086 96.00086 96.00086l640 0c52.92708 0 95.99914-43.07206 95.99914-96.00086l0-640C928.00086 11.0712 884.9288-32.00086 832-32.00086zM192 735.99914c-17.632039 0-32.00086-14.368821-32.00086-32.00086l0-640c0-17.664722 14.368821-31.99914 32.00086-31.99914l640 0c17.664722 0 31.99914 14.336138 31.99914 31.99914l0 640c0 17.632039-14.336138 32.00086-31.99914 32.00086L192 735.99914z"  horiz-adv-x="1024" />

    
    <glyph glyph-name="wancheng" unicode="&#58964;" d="M486.4 265.6c-19.2-19.2-48-19.2-67.2-3.2l-137.6 131.2-32-35.2 137.6-131.2c38.4-35.2 96-35.2 134.4 3.2l281.6 297.6-35.2 32L486.4 265.6zM512 844.8c-252.8 0-460.8-204.8-460.8-460.8s204.8-460.8 460.8-460.8 460.8 204.8 460.8 460.8S764.8 844.8 512 844.8zM512-28.8c-227.2 0-412.8 185.6-412.8 412.8s185.6 412.8 412.8 412.8 412.8-185.6 412.8-412.8S739.2-28.8 512-28.8z"  horiz-adv-x="1024" />

    
    <glyph glyph-name="icon1460188478041" unicode="&#58924;" d="M885.960599 666.667871 139.025868 666.667871c-13.322423 0-24.092721 10.770298-24.092721 24.092721 0 13.302981 10.770298 24.097838 24.092721 24.097838l746.93473 0c13.323447 0 24.092721-10.794857 24.092721-24.097838C910.05332 677.438169 899.284045 666.667871 885.960599 666.667871L885.960599 666.667871zM645.010875 763.043872l-265.036305 0c-13.323447 0-24.097838 10.770298-24.097838 24.097838 0 13.297864 10.774391 24.093744 24.097838 24.093744l265.036305 0c13.328563 0 24.098861-10.796904 24.098861-24.093744C669.109736 773.813147 658.340461 763.043872 645.010875 763.043872L645.010875 763.043872zM404.06729 136.590144 404.06729 546.194032c0 13.301957 10.769274 24.097838 24.092721 24.097838 13.328563 0 24.097838-10.79588 24.097838-24.097838l0-409.603889c0-13.32754-10.769274-24.097838-24.097838-24.097838C414.837588 112.492306 404.06729 123.261581 404.06729 136.590144L404.06729 136.590144zM572.728618 136.590144 572.728618 546.194032c0 13.301957 10.773368 24.097838 24.097838 24.097838 13.323447 0 24.092721-10.79588 24.092721-24.097838l0-409.603889c0-13.32754-10.769274-24.097838-24.092721-24.097838C583.501986 112.492306 572.728618 123.261581 572.728618 136.590144L572.728618 136.590144zM235.406986 594.384591c13.32447 0 24.093744-10.796904 24.093744-24.092721l0-28.528754 0-91.946109 0-385.510144c0-26.600845 21.590737-48.192605 48.190559-48.192605l409.603889 0c26.599821 0 48.190559 21.591761 48.190559 48.192605l0 385.510144 0 91.946109 0 28.528754c0 13.296841 10.769274 24.092721 24.093744 24.092721 13.32754 0 24.097838-10.796904 24.097838-24.092721l0-96.383164 0-24.091698 0-409.609005c0-39.924291-32.361035-72.285327-72.284303-72.285327L283.593452-32.077324c-39.923268 0-72.284303 32.361035-72.284303 72.285327L211.309148 405.601994l0 44.215014 0 24.091698 0 96.383164C211.309148 583.587688 222.083539 594.384591 235.406986 594.384591L235.406986 594.384591zM235.406986 594.384591"  horiz-adv-x="1024" />

    
    <glyph glyph-name="bianji" unicode="&#58885;" d="M987.994288 495.325714C973.585145 495.325714 961.899429 483.664 961.81143 469.278855L961.81143 4.717714C961.81143-24.210286 938.357716-47.641143 909.458286-47.641143L123.946286-47.641143C95.046857-47.641143 71.587429-24.21143 71.587429 4.717714L71.587429 762.605714C71.587429 791.541714 95.046857 814.964571 123.946286 814.964571L629.873145 814.964571C644.312002 814.995429 656.026288 826.708571 656.026288 841.142857 656.026288 855.609143 644.309716 867.324571 629.873145 867.324571L118.708571 867.324571C63.764571 867.324571 19.229714 822.788571 19.229714 767.837714L19.229714-0.520002C19.229714-55.467429 63.765714-99.998859 118.708571-99.998859L914.693716-99.998859C969.642288-99.998859 1014.180571-55.467429 1014.180571-0.520002L1014.180571 469.278855C1014.091429 483.666286 1002.412573 495.32457 987.996573 495.32457L987.996573 495.32457 987.996573 495.32457 987.994288 495.325714ZM501.289143 159.858286 999.385143 657.907429C1029.013716 687.514286 1026.289145 738.497143 993.284571 771.450286L946.238859 818.547429C913.262859 851.553143 862.304 854.312 832.674286 824.706286L334.578286 326.553143 501.288002 159.859427 501.289143 159.858286ZM869.77943 787.508571C881.032002 798.738286 900.356571 797.715429 912.882286 785.219429L959.949714 738.153143C972.445714 725.574857 973.498288 706.275429 962.246857 695.073143L906.972573 639.798857 815.229714 732.965714 869.778286 787.508571 869.77943 787.508571ZM867.866288 600.691429 497.537145 230.311998 405.044571 322.778284 776.124573 693.860571 867.867429 600.693714 867.866288 600.691429ZM334.336 325.614855 283.133714 137.989712C280.897143 129.790855 283.238857 121.099429 289.176 115.05257 295.196571 109.12 303.909714 106.795429 312.091429 109.00457L499.723429 160.179427 461.31543 198.653714 339.489143 165.36 372.713143 287.262855 334.334857 325.616 334.336 325.614855Z"  horiz-adv-x="1024" />

    
    <glyph glyph-name="wancheng1" unicode="&#59042;" d="M306.13568 428.416l147.84-147.904 264.32 264.32c11.072 11.136 29.056 11.136 40.192 0s11.136-29.12 0-40.192l-281.536-281.536c-6.336-6.336-14.848-8.704-23.104-7.744-7.616-1.408-15.104 0-20.352 5.248L265.94368 388.16C256.66368 397.44 258.13568 413.952 269.27168 425.088 280.34368 436.16 296.85568 437.696 306.13568 428.416zM547.41568-126.656c-132.16-9.216-261.056 32.448-362.816 117.184-12.736 10.624-14.528 29.632-3.904 42.368 10.56 12.8 29.568 14.656 42.432 3.904 89.856-74.752 203.584-111.424 320.128-103.36 248.512 17.28 436.672 233.344 419.456 481.856-17.28 248.512-233.344 436.672-481.92 419.456C232.27968 817.472 44.11968 601.344 61.39968 352.832c4.8-69.056 24.512-134.208 58.752-193.728 8.256-14.4 3.328-32.832-11.072-41.088-14.336-8.32-32.832-3.328-41.152 11.072-38.784 67.52-61.248 141.312-66.688 219.648-19.52 281.6 193.792 526.656 475.392 546.112s526.656-193.792 546.112-475.392C1042.32768 137.728 829.01568-107.2 547.41568-126.656zM512.02368-127.936c-115.584 0-224.704 37.632-315.52 108.672-13.12 10.176-15.424 29.12-5.12 42.24 10.24 13.12 29.12 15.552 42.24 5.12 80.128-62.656 176.384-95.808 278.4-95.808 249.152 0 451.776 202.624 451.776 451.776S761.17568 835.84 512.02368 835.84 60.24768 633.216 60.24768 384.064c0-84.416 23.424-166.848 67.84-238.4 8.768-14.08 4.416-32.704-9.664-41.408-14.272-8.768-32.704-4.416-41.472 9.664-50.368 81.024-76.928 174.464-76.928 270.144 0 282.304 229.696 512 512 512s512-229.696 512-512S794.32768-127.936 512.02368-127.936z"  horiz-adv-x="1025" />

    
    <glyph glyph-name="duihao1" unicode="&#59147;" d="M390.512065 133.850753 131.140783 430.720068 161.722288 457.438593 392.512628 193.282331 868.794126 669.561781 897.508098 640.846786Z"  horiz-adv-x="1024" />

    
    <glyph glyph-name="delete1" unicode="&#58887;" d="M511.014556 831.89703c-246.704798 0-447.402773-200.714348-447.402773-447.410959s200.697975-447.420169 447.402773-447.420169c246.714008 0 447.420169 200.723557 447.420169 447.420169S757.728564 831.89703 511.014556 831.89703zM728.915331 211.15949c12.313443-12.313443 12.313443-32.253588 0-44.567032-6.152117-6.152117-14.219863-9.228175-22.279423-9.228175-8.067746 0-16.135492 3.076058-22.287609 9.228175L511.022743 339.914946 337.697185 166.592458c-6.152117-6.152117-14.219863-9.228175-22.279423-9.228175-8.067746 0-16.135492 3.076058-22.287609 9.228175-12.313443 12.313443-12.313443 32.253588 0 44.567032l173.323511 173.323511L293.131177 557.802418c-12.313443 12.313443-12.313443 32.261775 0 44.575218 12.313443 12.304234 32.253588 12.304234 44.567032 0L511.022743 429.052079l173.325557 173.325557c12.313443 12.304234 32.253588 12.304234 44.567032 0 12.313443-12.313443 12.313443-32.261775 0-44.575218L555.591821 384.483001 728.915331 211.15949z"  horiz-adv-x="1024" />

    
    <glyph glyph-name="jiancha" unicode="&#59046;" d="M478.4 129.6 478.4 129.6c-0.8 0-0.8 0-0.8 0-0.8 0-0.8 0-1.6 0l-92.8 2.4c-0.8 0-104 0-104.8 0l0 0 0 0c-15.2 0-27.2-12-27.2-27.2 0-12.8 8.8-23.2 20.8-26.4l0 0c0.8 0 1.6 0 2.4-0.8 0.8 0 0.8 0 1.6 0 0.8 0 1.6 0 2.4 0l103.2 0 96-2.4 0.8 0 0 0c0.8 0 1.6 0 2.4 0l0.8 0c13.6 1.6 24 12.8 24 27.2C505.6 117.6 493.6 129.6 478.4 129.6zM477.6 288 477.6 288c-0.8 0-0.8 0-1.6 0-0.8 0-0.8 0-1.6 0L383.2 288c-0.8 0-104 0-104.8 0l0 0 0 0c-15.2 0-27.2-12-27.2-27.2 0-12.8 8.8-23.2 20.8-26.4l0 0c0.8 0 1.6 0 2.4-0.8 0.8 0 0.8 0 1.6 0 0.8 0 1.6 0 2.4 0l103.2 0 95.2 0 0.8 0c0 0 0 0 0.8 0 15.2 0 27.2 12 27.2 27.2C505.6 276 492.8 288 477.6 288zM277.6 444l-0.8 0c-15.2 0-27.2-12-27.2-27.2s12-27.2 27.2-27.2l0.8 0 103.2 0 366.4 0c1.6 0 4 0 5.6 0.8l0 0c12.8 2.4 23.2 13.6 23.2 27.2 0 15.2-12 27.2-27.2 27.2l-0.8 0 0 0c-0.8 0-0.8 0-1.6 0L277.6 444C278.4 444 277.6 444 277.6 444zM1019.2-79.2l-84 84c23.2 32.8 36.8 72.8 36 116-2.4 100-84 182.4-184 185.6-110.4 3.2-200-86.4-196-196.8 3.2-100 85.6-181.6 185.6-184 43.2-0.8 83.2 12 116 36l84-84c5.6-5.6 16-5.6 21.6 0l21.6 21.6C1025.6-95.2 1025.6-85.6 1019.2-79.2L1019.2-79.2zM644.8 116c0 78.4 66.4 140.8 145.6 135.2 67.2-4.8 121.6-59.2 125.6-125.6 5.6-79.2-57.6-145.6-135.2-145.6C705.6-20 644.8 40.8 644.8 116L644.8 116zM577.6-73.6c-172.8 0-410.4 0-428.8 0 0 4.8 0 913.6 0 913.6l468.8 0 0-208c0-26.4 19.2-48.8 44-54.4 3.2-0.8 10.4-0.8 10.4-0.8l207.2 0 0-211.2 55.2 0L934.4 606.4c0.8 9.6-4 20.8-12.8 29.6-0.8 0.8-0.8 0.8-1.6 1.6L767.2 786.4C766.4 786.4 670.4 880 669.6 880.8c-1.6 1.6-4 4-6.4 5.6-1.6 1.6-3.2 2.4-5.6 4-3.2 1.6-9.6 4.8-16 4.8-0.8 0-0.8 0-1.6 0L304.8 895.2c-0.8 0-154.4 0-155.2 0-26.4 0-48.8-19.2-54.4-44C94.4 848 94.4 844 94.4 840c0-116.8 0-901.6 0-912.8 0-26.4 19.2-48.8 44-53.6 3.2-0.8 7.2-0.8 11.2-0.8l0.8 0 152 0 275.2 0L577.6-73.6zM672.8 800.8 849.6 632c0 0-161.6 0-176.8 0C672.8 637.6 672.8 800.8 672.8 800.8z"  horiz-adv-x="1025" />

    
    <glyph glyph-name="duihao2" unicode="&#58884;" d="M511.999 831.185c-246.974 0-447.185-200.211-447.185-447.185s200.211-447.185 447.185-447.185 447.185 200.211 447.185 447.185-200.212 447.185-447.185 447.185zM792.447 531.592l-359.531-359.53c-2.922-2.922-6.617-4.613-10.49-5.128-6.634-1.994-14.123-0.376-19.364 4.866l-185.557 185.557c-7.593 7.593-7.593 19.903 0 27.496l23.064 23.064c7.592 7.593 19.903 7.593 27.496 0l149.793-149.793 324.029 324.029c7.342 7.341 19.549 7.037 27.265-0.678l22.619-22.619c7.715-7.716 8.019-19.923 0.676-27.264z"  horiz-adv-x="1024" />

    
    <glyph glyph-name="dingdan-copy" unicode="&#58904;" d="M537.429 590.474c53.437 0 96.754 44.64 96.754 99.73 0 30.991-13.709 58.678-35.23 76.978 1.841-6.278 3.14-12.808 3.14-19.712 0-37.644-29.596-68.146-66.104-68.146-36.517 0-66.115 30.502-66.115 68.146 0 5.515 0.8 10.802 2.010 15.929-19.132-18.219-31.203-44.22-31.203-73.194 0.001-55.091 43.318-99.731 96.748-99.731zM534.349 717.618c35.607 0 64.472 29.749 64.472 66.46 0 36.699-28.865 66.448-64.472 66.448-35.608 0-64.474-29.749-64.474-66.448-0-36.711 28.865-66.46 64.474-66.46zM78.809 121.594l155.81-62.177c-12.567 25.91-62.832 417.070-62.832 417.070l-92.978-354.893zM712.094-83.064l10.061 152.839-349.316-36.268 339.255-116.571zM817.639 758.851l-169.355-25.76c10.194-18.833 16.055-40.505 16.055-63.613 0-72.249-56.807-130.824-126.908-130.824-70.084 0-126.901 58.576-126.901 130.824 0 9.582 1.066 18.901 2.95 27.904l-209.025-31.788c7.536-202.060 98.011-603.591 98.011-603.591l650.886 113.984c-45.239 46.636-135.713 582.864-135.713 582.864zM327.385 439.709l276.938 41.051 8.23-30.819-276.923-41.063-8.245 30.831zM386.848 206.045l-10.060 35.15 340.838 49.995 10.070-35.149-340.848-49.996zM366.201 307.267l-13.441 34.878 439.032 59.52 13.447-34.875-439.038-59.523z"  horiz-adv-x="1024" />

    
    <glyph glyph-name="shouji" unicode="&#59064;" d="M733.866667 896 307.2 896c-47.121067 0-85.333333-38.1952-85.333333-85.333333l0-853.333333c0-47.138133 38.212267-85.333333 85.333333-85.333333l426.666667 0c47.138133 0 85.333333 38.1952 85.333333 85.333333L819.2 810.666667C819.2 857.8048 781.0048 896 733.866667 896zM452.266667 844.8l136.533333 0C593.5104 844.8 597.333333 840.977067 597.333333 836.266667S593.5104 827.733333 588.8 827.733333l-136.533333 0C447.556267 827.733333 443.733333 831.556267 443.733333 836.266667S447.556267 844.8 452.266667 844.8zM512-93.866667c-28.279467 0-51.2 22.920533-51.2 51.2s22.920533 51.2 51.2 51.2 51.2-22.920533 51.2-51.2S540.279467-93.866667 512-93.866667zM768 42.666667 273.066667 42.666667 273.066667 793.6l494.933333 0L768 42.666667z"  horiz-adv-x="1024" />

    
    <glyph glyph-name="youxiang" unicode="&#58926;" d="M207.70816 677.51936 815.5136 677.51936c29.51168 0 55.82848-11.96032 74.97728-31.10912l0 0c19.1488-19.1488 31.08864-45.4656 31.08864-74.17856l0-375.68512c0-29.4912-11.93984-55.84896-31.08864-74.9568-19.16928-19.16928-45.4656-31.1296-74.97728-31.1296L207.70816 90.46016c-28.69248 0-55.02976 11.96032-74.15808 31.1296-19.1488 19.12832-31.1296 45.4656-31.1296 74.9568L102.42048 572.23168c0 28.71296 11.9808 55.05024 31.1296 74.17856S178.9952 677.51936 207.70816 677.51936L207.70816 677.51936zM815.5136 635.26912 207.70816 635.26912c-16.73216 0-32.70656-7.18848-44.66688-18.35008-11.1616-11.96032-18.35008-27.91424-18.35008-44.66688l0-375.68512c0-17.53088 7.18848-33.4848 18.35008-44.66688 11.96032-11.96032 27.91424-19.16928 44.66688-19.16928L815.5136 132.73088c17.5104 0 33.4848 7.20896 44.6464 19.16928 12.00128 11.18208 19.16928 27.11552 19.16928 44.66688L879.32928 572.23168c0 16.73216-7.168 32.70656-18.35008 44.66688L860.16 616.89856C848.9984 628.08064 833.04448 635.26912 815.5136 635.26912L815.5136 635.26912zM829.05088 644.01408 488.48896 313.81504 177.39776 635.26912 207.70816 664.76032 489.2672 373.63712 800.33792 674.34496Z"  horiz-adv-x="1024" />

    
    <glyph glyph-name="zhouqi" unicode="&#58891;" d="M627.809524 459.385905l115.809524 0 0-115.809524-115.809524 0 0 115.809524ZM454.119619 459.385905l115.809524 0 0-115.809524-115.809524 0 0 115.809524ZM627.809524 250.709333l115.809524 0 0-115.809524-115.809524 0 0 115.809524ZM251.440762 715.215238c24.30781 0 44.007619 19.72419 44.007619 44.032L295.448381 847.238095l-88.015238 0 0-87.990857C207.433143 734.939429 227.132952 715.215238 251.440762 715.215238zM772.583619 712.143238c24.746667 0 44.763429 20.016762 44.763429 44.763429L817.347048 847.238095l-89.526857 0 0-90.331429C727.82019 732.16 747.910095 712.143238 772.583619 712.143238zM280.380952 250.709333l115.809524 0 0-115.809524-115.809524 0 0 115.809524ZM454.119619 250.709333l115.809524 0 0-115.809524-115.809524 0 0 115.809524ZM859.40419 836.583619l0-76.214857c0-47.981714-38.887619-86.869333-86.869333-86.869333-47.957333 0-86.844952 38.912-86.844952 86.869333L685.689905 847.238095l-347.428571 0 0-86.869333c0-47.981714-38.912-86.869333-86.869333-86.869333-48.006095 0-86.869333 38.912-86.869333 86.869333L164.522667 836.583619C97.28 812.641524 48.761905 749.031619 48.761905 673.499429l0-579.047619C48.761905-1.487238 126.537143-79.238095 222.500571-79.238095l579.023238 0C897.487238-79.238095 975.238095-1.487238 975.238095 94.45181L975.238095 673.499429C975.238095 749.031619 926.744381 812.641524 859.40419 836.583619zM875.690667 71.875048c0-34.03581-27.282286-61.68381-60.903619-61.68381L205.482667 10.191238c-33.694476 0-60.952381 27.648-60.952381 61.68381L144.530286 565.248l731.160381 0L875.690667 71.875048zM280.380952 459.385905l115.809524 0 0-115.809524-115.809524 0 0 115.809524Z"  horiz-adv-x="1024" />

    
    <glyph glyph-name="ditu" unicode="&#59015;" d="M519.601118 658.760784c-105.260345 0-192.214766-86.954421-192.214766-192.21579 0-105.260345 86.954421-192.214766 192.214766-192.214766 105.260345 0 192.21579 86.954421 192.21579 192.214766C711.816908 571.806363 629.438713 658.760784 519.601118 658.760784zM519.601118 338.402499c-69.89693 0-128.143519 58.246589-128.143519 128.143519 0 69.89693 58.247612 128.143519 128.143519 128.143519s128.143519-58.246589 128.143519-128.143519C647.744637 396.649088 595.322707 338.402499 519.601118 338.402499zM512 832.515107c-197.920722 0-358.366947-160.446225-358.366947-358.366947s358.366947-538.662243 358.366947-538.662243S870.366947 276.226414 870.366947 474.147136 709.920722 832.515107 512 832.515107zM512 33.424506c0 0-293.209972 278.788517-293.209972 440.723653S350.064864 767.357108 512 767.357108s293.209972-131.274836 293.209972-293.209972S512 33.424506 512 33.424506z"  horiz-adv-x="1024" />

    
    <glyph glyph-name="zhanghu" unicode="&#58974;" d="M765.679142 245.807614c-7.777127 7.989975-20.392446 7.989975-28.170596 0-7.779174-7.965415-7.779174-20.929682 0.023536-28.871561 60.243059-61.761646 93.412506-143.846152 93.412506-231.115752 0-11.30651 8.924253-20.415982 19.926842-20.415982 11.024078 0 19.948331 9.109472 19.948331 20.415982C870.81976 84.021881 833.469084 176.361963 765.679142 245.807614L765.679142 245.807614zM511.999488 802.59568c-131.908262 0-239.195777-109.974717-239.195777-245.153466 0-96.40363 54.56678-179.982164 133.753283-219.996506-55.407937-17.355273-106.168018-48.469921-148.259672-91.638093-67.787896-69.445652-105.117083-161.785733-105.117083-259.986289 0-11.30651 8.924253-20.415982 19.948331-20.415982 11.002588 0 19.926842 9.109472 19.926842 20.415982 0 87.268576 33.169447 169.353083 93.412506 231.115752 58.07058 59.518558 134.619 93.202729 216.399585 95.561449 3.036149-0.115634 6.072299-0.186242 9.131985-0.186242 131.910309 0 239.22136 109.951181 239.22136 245.12993C751.197312 692.620963 643.909797 802.59568 511.999488 802.59568L511.999488 802.59568zM515.317047 353.21281c-1.075495 0.187265-2.196015 0.280386-3.363607 0.280386-3.036149 0-6.049786-0.023536-9.085936-0.094144-105.677854 4.90573-190.215226 94.558609-190.215226 204.042139 0 112.63736 89.443102 204.275453 199.347211 204.275453 109.905132 0 199.347211-91.638093 199.347211-204.275453C711.345676 445.947887 623.703593 355.034295 515.317047 353.21281L515.317047 353.21281zM515.317047 353.21281"  horiz-adv-x="1024" />

    
    <glyph glyph-name="gengduo" unicode="&#58912;" d="M557.179-8c-8.189 0-16.379 3.124-22.628 9.372-12.496 12.497-12.496 32.759 0 45.256L871.924 384 534.551 721.373c-12.496 12.497-12.496 32.758 0 45.255 12.498 12.497 32.758 12.497 45.256 0l360-360c12.496-12.497 12.496-32.758 0-45.255l-360-360c-6.249-6.249-14.439-9.373-22.628-9.373z"  horiz-adv-x="1024" />

    
    <glyph glyph-name="shang" unicode="&#58940;" d="M904 204c0-8.189-3.124-16.379-9.372-22.628-12.497-12.496-32.759-12.496-45.256 0L512 518.745 174.628 181.372c-12.497-12.496-32.758-12.496-45.255 0-12.497 12.498-12.497 32.758 0 45.256l360 360c12.497 12.496 32.758 12.496 45.255 0l360-360C900.876 220.379 904 212.189 904 204z"  horiz-adv-x="1024" />

    
    <glyph glyph-name="xia" unicode="&#58941;" d="M904 564c0 8.189-3.124 16.379-9.372 22.628-12.497 12.496-32.759 12.496-45.256 0L512 249.255 174.628 586.628c-12.497 12.496-32.758 12.496-45.255 0-12.497-12.498-12.497-32.758 0-45.256l360-360c12.497-12.496 32.758-12.496 45.255 0l360 360C900.876 547.621 904 555.811 904 564z"  horiz-adv-x="1024" />

    
    <glyph glyph-name="zuo" unicode="&#58942;" d="M481.233-8c8.189 0 16.379 3.124 22.628 9.372 12.496 12.497 12.496 32.759 0 45.256L166.488 384l337.373 337.373c12.496 12.497 12.496 32.758 0 45.255-12.498 12.497-32.758 12.497-45.256 0l-360-360c-12.496-12.497-12.496-32.758 0-45.255l360-360c6.249-6.249 14.439-9.373 22.628-9.373z"  horiz-adv-x="1024" />

    
    <glyph glyph-name="jiankangguanli" unicode="&#58921;" d="M285.623 236.458h196.858c16.311 0 29.528 13.219 29.528 29.512s-13.217 29.512-29.528 29.512H285.623c-16.311 0-29.528-13.22-29.528-29.512s13.217-29.512 29.528-29.512z m334.658-99.528H285.623c-16.311 0-29.528-13.22-29.528-29.512s13.217-29.512 29.528-29.512h334.658c16.312 0 29.529 13.219 29.529 29.512s-13.217 29.512-29.529 29.512z m206.69 679.92H197.028c-32.616 0-59.057-26.427-59.057-59.026v-747.648c0-32.598 26.442-59.025 59.057-59.025h629.945c32.616 0 59.057 26.426 59.057 59.025V757.824c0 32.6-26.44 59.025-59.057 59.025z m0-131.988v-655.01c0-10.867-8.813-19.676-19.685-19.676H216.714c-10.873 0-19.686 8.809-19.686 19.675V738.15c0 10.866 8.814 19.675 19.686 19.675h590.572c10.873 0 19.686-8.809 19.686-19.675v-53.288zM664.17 698.483c-26.622 0-53.24-10.09-73.438-30.271-20.195 20.179-46.82 30.27-73.437 30.271-26.625 0.002-53.243-10.09-73.44-30.277-40.39-40.367-40.39-106.423-0.006-146.795l-0.01-0.01 146.886-146.804 0.007 0.008 0.008-0.008v0.015l146.87 146.79c40.393 40.37 40.393 106.433 0 146.804-20.196 20.185-46.819 30.277-73.44 30.277z m31.68-135.344L590.726 458.074l-105.113 105.07c-17.466 17.46-17.466 45.869 0.002 63.326 8.381 8.376 19.63 12.99 31.676 12.99 12.051-0.002 23.304-4.615 31.686-12.99l41.755-41.72 41.755 41.72c8.382 8.376 19.634 12.99 31.683 12.99 12.048 0 23.3-4.615 31.68-12.99 8.382-8.377 12.997-19.623 12.997-31.665 0-12.044-4.617-23.288-12.999-31.666z"  horiz-adv-x="1024" />

    
    <glyph glyph-name="dangan" unicode="&#59027;" d="M858.624 518.4H165.4272c-8.5504 0-15.9232-3.1744-22.1696-9.5232s-9.3696-13.824-9.3696-22.4768v-479.9488c0-8.704 3.1232-16.1792 9.3696-22.528a30.0544 30.0544 0 0 1 22.1696-9.5232h693.1456a30.208 30.208 0 0 1 22.2208 9.5232 31.232 31.232 0 0 1 9.3696 22.528V486.4a31.3344 31.3344 0 0 1-9.3184 22.528 30.464 30.464 0 0 1-22.2208 9.472z m-261.376-150.4256a30.1056 30.1056 0 0 0-22.1696-9.5232H449.024c-8.5504 0-15.9744 3.2256-22.1696 9.5232s-9.3184 13.824-9.3184 22.4768a30.4128 30.4128 0 0 0 9.3184 22.4256 30.208 30.208 0 0 0 22.1696 9.5744h125.952c8.6016 0 15.9744-3.2256 22.2208-9.5232 6.2464-6.3488 9.4208-13.824 9.4208-22.4768s-3.1232-16.128-9.3696-22.4768z m315.0848 416.1024A30.1056 30.1056 0 0 1 890.1632 793.6H133.9392a29.8496 29.8496 0 0 1-22.1696-9.5232 30.976 30.976 0 0 1-9.3696-22.528v-127.9488c0-8.6528 3.1232-16.128 9.3184-22.4768a30.1056 30.1056 0 0 1 22.1696-9.5232h756.1728a30.1568 30.1568 0 0 1 22.2208 9.5232 31.3344 31.3344 0 0 1 9.3184 22.4768V761.5488a31.2832 31.2832 0 0 1-9.2672 22.528z"  horiz-adv-x="1024" />

    
    <glyph glyph-name="weixuanzhong" unicode="&#58892;" d="M723.388362 874.875958C451.627899 874.875958 230.506652 653.75471 230.506652 381.994248c0-271.794866 221.085123-492.88343 492.88171-492.88343 271.796586 0 492.879989 221.088563 492.879989 492.88343 0 271.760462-221.086843 492.881709-492.879989 492.88171z m0-920.397581C487.638543-45.521623 295.87421 146.24443 295.87421 381.994248 295.87421 617.713103 487.669507 809.508399 723.388362 809.508399c235.746378 0 427.512431-191.795296 427.512431-427.512431 0-235.751539-191.762613-427.517592-427.512431-427.517591z"  horiz-adv-x="1448" />

    
    <glyph glyph-name="ciclePoint" unicode="&#59236;" d="M370.268 395c0-0 0-0 0-0 0-78.276 63.456-141.732 141.732-141.732 78.276 0 141.732 63.456 141.732 141.732 0 0 0 0 0 0 0 78.276-63.456 141.732-141.732 141.732-78.276 0-141.732-63.456-141.732-141.732z"  horiz-adv-x="1024" />

    
    <glyph glyph-name="ribao" unicode="&#58906;" d="M359.2 89.733333h17.2c10.266667 0 17.2 6.933333 17.2 17.2v30.933334H641.333333v-30.933334c0-10.266667 6.933333-17.2 17.2-17.2h17.2c10.266667 0 17.2 6.933333 17.2 17.2V578.4c0 10.266667-6.933333 17.2-17.2 17.2H359.2c-10.266667 0-17.2-6.933333-17.2-17.2v-471.466667c0-10.266667 6.8-17.2 17.2-17.2z m37.866667 450.8h247.733333V396H397.066667V540.533333z m0-199.6h247.733333v-151.466666H397.066667V340.933333z m320 388.933334c20.666667 0 34.4 13.733333 34.4 27.466666V867.466667C751.466667 884.666667 737.733333 894.933333 717.066667 894.933333S682.666667 881.2 682.666667 867.466667V757.333333c0-17.2 17.2-27.466667 34.4-27.466666z m-412.933334 0c20.666667 0 34.4 13.733333 34.4 27.466666V867.466667C338.533333 884.666667 321.333333 894.933333 304.133333 894.933333c-20.666667 0-34.4-13.733333-34.4-27.466666V757.333333c0-17.2 17.2-27.466667 34.4-27.466666z m103.2 37.733333h206.533334c17.2 0 30.933333 17.2 30.933333 34.4 0 20.666667-13.733333 34.4-30.933333 34.4H407.333333c-17.2 0-30.933333-17.2-30.933333-34.4 3.466667-20.533333 17.2-34.4 30.933333-34.4zM844.4 839.866667h-20.666667C803.066667 839.866667 789.333333 822.666667 789.333333 805.466667c0-20.666667 17.2-34.4 34.4-34.4h20.666667c65.333333 0 120.4-51.6 120.4-120.4v-581.6c0-65.333333-55.066667-120.4-120.4-120.4H194c-65.333333 0-120.4 55.066667-120.4 120.4V647.2c0 65.333333 55.066667 120.4 120.4 120.4 20.666667 0 34.4 17.2 34.4 34.4 0 20.666667-17.2 34.4-34.4 34.4C87.333333 839.866667 1.333333 753.866667 1.333333 647.066667v-581.6c0-106.666667 86-192.666667 192.666667-192.666667h650.4c106.666667 0 189.333333 86 189.333333 192.666667V647.2c-0.133333 106.666667-86.133333 192.666667-189.333333 192.666667z"  horiz-adv-x="1037" />

    
    <glyph glyph-name="wujiaoxing" unicode="&#58889;" d="M565.273 861.373l112.096-237.542c8.707-18.321 25.411-31.052 44.823-33.996l250.777-38.081c48.697-7.411 68.225-70.046 32.934-105.98l-181.494-184.937c-13.998-14.231-20.352-34.815-17.059-54.935l42.819-261.127c8.347-50.696-42.642-89.452-86.225-65.518l-224.308 123.271c-17.286 9.526-37.993 9.526-55.279 0l-224.314-123.271c-43.583-23.934-94.572 14.823-86.22 65.518l42.814 261.127c3.321 20.12-3.089 40.705-17.087 54.935l-181.439 184.937c-35.286 35.934-15.819 98.574 32.934 105.98l250.749 38.081c19.351 2.939 36.083 15.675 44.756 33.996l112.124 237.542c21.825 46.168 84.836 46.168 106.6-0z"  horiz-adv-x="1024" />

    
    <glyph glyph-name="jiahao" unicode="&#58890;" d="M511.377 830.516c-246.426 0-446.895-200.47-446.895-446.867 0-246.425 200.47-446.895 446.895-446.895s446.895 200.47 446.895 446.895c0 246.397-200.47 446.867-446.895 446.867z m0-846.641c-220.447 0-399.78 179.327-399.78 399.774 0 220.418 179.333 399.75 399.78 399.75s399.778-179.33 399.778-399.75c0-220.447-179.331-399.774-399.778-399.774z m168.557 431.912H543.199V552.206c0 13.004-18.41 23.559-31.415 23.559-13.004 0-31.41-10.555-31.41-23.559v-136.419H342.82c-13.004 0-23.558-18.41-23.558-31.415 0-13.004 10.554-31.409 23.558-31.409h137.555v-137.9c0-13.004 18.405-23.557 31.41-23.557 13.003 0 31.414 10.553 31.414 23.557v137.9h136.736c13.004 0 23.557 18.405 23.557 31.41 0 13.004-10.525 31.414-23.558 31.414z m0 0"  horiz-adv-x="1024" />

    
    <glyph glyph-name="candan" unicode="&#58893;" d="M799.264 830.72H224.864A127.68 127.68 0 0 1 97.28 703.104v-638.112c0-70.4 57.216-127.616 127.584-127.616h574.4a127.712 127.712 0 0 1 127.584 127.616V703.104c0 70.4-57.312 127.616-127.584 127.616z m63.744-765.728c0-35.2-28.672-63.872-63.872-63.872H224.864c-35.2 0-63.84 28.672-63.84 63.872V703.104c0 35.2 28.672 63.872 63.84 63.872h574.4c35.2 0 63.84-28.672 63.84-63.872v-638.112h-0.096z m-127.648 288.384H384.384a32 32 0 0 1-31.936-31.936c0-17.632 14.208-31.936 31.936-31.936H735.36a31.936 31.936 0 0 1 0 63.872z m0-153.952H384.384a31.968 31.968 0 0 1 0-63.84H735.36a31.936 31.936 0 0 1 0 63.84zM256.8 289.504h63.84v63.872H256.8v-63.872z m0-153.92h63.84v63.84H256.8v-63.84zM300.544 617.568v24.416a277.44 277.44 0 0 1-1.12 22.176h21.088a122.112 122.112 0 0 1-1.12-17.728h19.968c7.392 0 17.376 0.352 29.952 1.12v-15.552a445.056 445.056 0 0 1-28.832 1.12h-21.088V617.6h47.712c-8.864-14.048-18.688-25.504-29.408-34.4s-21.824-16.48-33.28-22.752-23.84-12-37.152-17.184l-16.64 16.64c9.6 1.472 17.184 3.328 22.72 5.536s12 5.184 19.424 8.864a349.152 349.152 0 0 1-16.64 11.104c2.944 3.68 6.656 7.776 11.104 12.192 6.656-3.68 13.664-8.128 21.056-13.312 10.336 5.184 19.232 11.456 26.624 18.848H280.576c-6.656-7.392-15.904-16.64-27.744-27.744a107.296 107.296 0 0 1-13.312 13.344c6.656 5.92 13.12 12.384 19.392 19.392s11.296 14.24 15.008 21.664c2.944-3.712 6.656-7.776 11.104-12.192h15.52z m75.424-39.936c9.6-9.632 21.824-17.952 36.608-24.96 14.784-7.04 28.448-12.192 41.056-15.52 12.576-3.328 27.744-5.728 45.472-7.2-5.184-6.656-9.28-14.432-12.192-23.296-11.84 2.944-21.472 5.536-28.832 7.776a316.544 316.544 0 0 0-19.968 6.656v-27.744c0-8.864 0.352-18.496 1.12-28.832 3.68-3.712 8.864-7.776 15.52-12.192a102.336 102.336 0 0 1-23.296-12.192c14.784-5.184 28.448-10.336 41.056-15.52a117.984 117.984 0 0 1-12.192-18.848 2047.136 2047.136 0 0 1-48.8 22.752 719.104 719.104 0 0 1-48.8 19.392c1.472 2.208 3.68 6.272 6.656 12.192H318.272v-21.088a349.12 349.12 0 0 1 34.4 11.104c0-8.128 0.352-15.168 1.12-21.088a156.48 156.48 0 0 1-27.2-8.864 205.248 205.248 0 0 1-23.84-12.192 303.488 303.488 0 0 0-11.104 19.968c3.68 4.448 5.92 12.192 6.656 23.296v65.44c-13.312-7.392-28.096-14.784-44.384-22.176a59.392 59.392 0 0 1-13.312 19.968 247.584 247.584 0 0 1 68.192 31.616c10.688 7.04 20.16 13.888 28.288 20.544a108.48 108.48 0 0 1 22.176 25.504c5.92-3.712 12.928-6.656 21.088-8.864l-4.384-5.632z m-17.76-48.8a187.712 187.712 0 0 0-5.536 14.432c7.392 1.472 13.312 3.328 17.76 5.536 3.68-8.864 6.272-15.52 7.776-19.968h45.472a159.68 159.68 0 0 0-32.736 16.64c-11.456 7.392-20.16 14.784-26.048 22.176a306.56 306.56 0 0 0-52.128-38.816h45.44z m59.904-27.744v13.312h-99.84v-13.312h99.84z m0-27.744v14.432h-99.84v-14.432h99.84z m-41.024-13.312c16.992-6.656 28.48-11.104 34.4-13.312 5.92 3.68 12.192 8.128 18.848 13.312h-53.248z m97.6 191.936c-11.104-23.68-21.824-41.408-32.16-53.248 11.808-7.392 24-15.168 36.608-23.296a176 176 0 0 1-14.432-16.64 229.024 229.024 0 0 1-34.4 26.624 209.28 209.28 0 0 0-29.952-22.176 68.192 68.192 0 0 1-15.52 13.312c13.312 5.92 23.296 12.192 29.952 18.848-7.392 5.184-18.112 11.84-32.16 19.968 2.944 3.68 6.656 8.128 11.104 13.312 11.84-7.392 23.296-14.432 34.4-21.088 8.128 9.6 14.432 19.584 18.848 29.952h-41.056c-5.184 0-12.96-0.384-23.296-1.12v16.64c10.336-0.736 18.112-1.12 23.296-1.12h68.768zM745.376 615.36v-113.152h-83.2v-26.624h73.216c16.256 0 30.304 0.352 42.144 1.12v-22.176a726.88 726.88 0 0 1-42.144 1.12h-73.216c0-22.912 0.384-39.2 1.088-48.8h-24.416c1.504 9.632 2.208 25.888 2.208 48.8H568.96c-17.76 0-30.688-0.384-38.848-1.12v22.176c7.392-0.736 19.584-1.12 36.64-1.12h74.304v26.624h-79.872c0.736 12.576 1.12 30.688 1.12 54.368a1280 1280 0 0 1-1.12 58.784h109.856c8.128 16.992 15.168 34.4 21.056 52.128 7.392-3.712 15.904-7.776 25.536-12.192-2.976-3.712-6.656-9.44-11.104-17.216s-8.864-15.328-13.312-22.72h52.16z m-104.288-47.712v28.864h-57.696v-28.832h57.696z m0-47.68v29.952h-57.696v-29.952h57.696z m-11.072 107.584c-8.128-3.712-14.784-7.04-19.968-9.984-7.36 16.256-14.784 28.832-22.176 37.728a161.6 161.6 0 0 1 16.672 11.104c7.328-8.16 15.872-21.088 25.472-38.848z m93.184-59.904v28.864h-60.992v-28.832H723.2z m0-47.68v29.952h-60.992v-29.952H723.2z"  horiz-adv-x="1024" />

    
    <glyph glyph-name="youxiang1" unicode="&#59049;" d="M187.092469 714.50971h649.809256a88.24158 88.24158 0 0 0 62.523804-25.979018 88.24158 88.24158 0 0 0 25.979018-62.523804v-484.022484a88.24158 88.24158 0 0 0-25.979018-62.523804 88.24158 88.24158 0 0 0-62.523804-25.979018H187.077956a88.24158 88.24158 0 0 0-62.523804 25.979018 88.24158 88.24158 0 0 0-25.979018 62.523804v484.022484a88.24158 88.24158 0 0 0 25.979018 62.523804 88.24158 88.24158 0 0 0 62.523804 25.979018z m649.809256-61.435298H187.077956c-7.401843 0-14.165096-3.047818-19.085145-7.982379-4.905535-4.905535-7.967866-11.668788-7.967866-19.085145v-484.022484c0-7.401843 3.047818-14.165096 7.98238-19.085145 4.905535-4.905535 11.668788-7.967866 19.070631-7.967866h649.809256c7.401843 0 14.165096 3.047818 19.085144 7.98238 4.920049 4.905535 7.98238 11.668788 7.98238 19.070631v484.022484c0 7.401843-3.062331 14.165096-7.98238 19.085145a26.96593 26.96593 0 0 1-19.085144 7.982379zM834.565065 531.060109a30.681365 30.681365 0 0 1-35.993276 49.679429l-286.567435-207.396741-286.581948 207.396741a30.681365 30.681365 0 0 1-35.993277-49.664916L492.585401 311.646258a30.739419 30.739419 0 0 1 37.430105-1.059479l-18.011152 24.890511 17.996638-24.846971 304.564073 220.42979z"  horiz-adv-x="1024" />

    
    <glyph glyph-name="zhifu" unicode="&#58895;" d="M296.507-9.907c-11.299 6.007-15.534 20.107-9.457 31.328 6.083 11.287 20.143 15.514 31.386 9.445 28.864-15.577 59.752-27.715 92.242-35.865 31.508-7.91 64.548-12.142 98.633-12.142 110.98 0 211.45 44.881 284.162 117.473 72.72 72.596 117.673 172.913 117.673 283.637 0 110.793-44.954 211.097-117.673 283.695-72.713 72.59-173.182 117.471-284.162 117.471-110.914 0-211.392-44.88-284.108-117.471-72.713-72.598-117.665-172.902-117.665-283.695 0-48.683 8.658-95.338 24.564-138.382 16.521-44.944 40.778-85.97 71.057-121.53 8.292-9.683 7.122-24.275-2.64-32.557-9.707-8.21-24.322-7.048-32.55 2.645-34.024 39.908-61.112 85.646-79.47 135.498-17.75 48.127-27.455 100.187-27.455 154.322 0 123.607 50.174 235.504 131.303 316.499C273.478 781.459 385.561 831.549 509.31 831.549c123.812 0 235.892-50.089 317.028-131.085 81.127-80.994 131.297-192.892 131.297-316.499 0-123.548-50.169-235.438-131.297-316.434-81.136-80.99-193.215-131.087-317.028-131.087-37.772 0-74.616 4.72-109.87 13.61a445.255 445.255 0 0 0-102.933 40.039zM532.588 391.51v-64.87h115.158c12.832 0 23.213-10.423 23.213-23.24 0-12.813-10.38-23.17-23.213-23.17H532.588v-72.781c0-12.813-10.441-23.176-23.212-23.176-12.84 0-23.278 10.363-23.278 23.176v72.78H370.943c-12.834 0-23.215 10.357-23.215 23.171 0 12.817 10.38 23.24 23.215 23.24h115.155v64.87H370.943c-12.834 0-23.215 10.359-23.215 23.174 0 12.82 10.38 23.24 23.215 23.24h107.169L355.777 543.075c-9.643 8.341-10.684 22.932-2.338 32.621 8.356 9.63 23.029 10.73 32.675 2.328L509.37 472.077l123.206 105.947c9.7 8.4 24.318 7.294 32.667-2.328 8.414-9.689 7.308-24.28-2.331-32.621l-122.338-105.15h107.172c12.832 0 23.213-10.425 23.213-23.24s-10.38-23.174-23.213-23.174H532.588v-0.001z m0 0"  horiz-adv-x="1024" />

    
    <glyph glyph-name="xinzeng" unicode="&#59067;" d="M514.98042 890.03916c-281.243253 0-509.01958-227.956959-509.01958-509.01958S233.917799-128 514.98042-128s509.01958 227.956959 509.01958 509.01958C1023.638737 662.262833 795.681778 890.03916 514.98042 890.03916z m0-949.760451c-243.491268 0-441.282766 197.791498-441.282766 441.282766S271.489152 822.844241 514.98042 822.844241 956.263186 624.872111 956.263186 381.561475 757.929794-59.721291 514.98042-59.721291zM752.149585 415.158935H548.758511V618.73064c0 18.605045-14.992415 34.139354-33.59746 34.139355S481.38296 637.87758 481.38296 618.73064V415.158935H277.26936c-18.605045 0-34.139354-14.992415-34.139355-33.59746S258.12242 347.783383 277.26936 347.783383H480.841065v-203.571705c0-18.605045 14.992415-34.139354 33.59746-34.139355s33.59746 14.992415 33.59746 34.139355V347.783383h203.571706c18.605045 0 34.139354 14.992415 34.139354 33.59746s-14.811783 33.778091-33.59746 33.778092z"  horiz-adv-x="1024" />

    
    <glyph glyph-name="kaishishijian" unicode="&#58894;" d="M871.633 134.426c-7.046 0-12.751-5.724-12.751-12.77v-25.495c0-7.021 5.705-12.719 12.751-12.719 7.05 0 12.747 5.697 12.747 12.719v25.495c0 7.046-5.697 12.77-12.747 12.77z m1.241-76.661c-6.942 1.268-13.521-3.367-14.768-10.257-4.347-24.332-25.438-41.946-50.179-41.946H706.623c-7.048 0-12.772-5.676-12.772-12.746 0-7.047 5.725-12.724 12.772-12.724h101.305c37.068 0 68.733 26.455 75.259 62.881 1.244 6.943-3.371 13.525-10.313 14.792zM830.594 816.95h-76.453V868.532C754.141 882.599 742.714 894 728.646 894c-14.069 0-25.467-11.401-25.467-25.468V816.95H320.878V868.532C320.878 882.599 309.479 894 295.384 894c-14.042 0-25.491-11.401-25.491-25.468V816.95h-76.43c-84.358 0-152.936-68.581-152.936-152.884v-637.183c0-84.305 68.577-152.883 152.936-152.883h637.131c84.304 0 152.879 68.578 152.879 152.883V664.066c0 84.303-68.575 152.884-152.879 152.884z m-637.131-50.962h76.43v-24.898c0-14.07 11.425-25.493 25.491-25.493 14.095 0 25.494 11.423 25.494 25.493v24.898h382.301v-24.898c0-14.07 11.397-25.493 25.467-25.493 14.068 0 25.495 11.423 25.495 25.493v24.898h76.4c56.217 0 101.972-45.753 101.972-101.922v-99.667H91.49v99.667c0 56.169 45.726 101.922 101.973 101.922z m637.131-841.026H193.463c-56.247 0-101.974 45.728-101.974 101.921V538.877h841.023v-511.995c0.001-56.193-45.754-101.92-101.918-101.92zM546.799 442.811c4.322 2.72 11.396 3.11 21.138 1.22 10.312-2.723 16.688-6.634 19.118-11.791 2.698-6.215 2.698-13.525 0-21.945-9.738-28.185-24.949-59.949-45.543-95.185l83.786 10.184c-6.506 15.181-10.986 24.949-13.421 29.301-3.262 6.477-3.262 12.305 0 17.487 3.239 5.673 8.134 10.285 14.614 13.808 6.265 3.24 12.354 4.744 18.338 4.457 6.482-0.803 11.352-4.196 14.618-10.181 8.13-15.184 14.766-28.991 19.947-41.479 5.674-13.809 12.722-33.318 21.138-58.528 2.152-7.07 1.09-12.771-3.26-17.098-4.615-5.413-10.313-9.068-17.074-10.983-7.073-1.892-13.424-2.048-19.098-0.416-6.27 1.631-10.338 5.855-12.228 12.643a611.598 611.598 0 0 0-3.677 11.349l-141.511-19.535c-6.787-1.605-13.163-1.841-19.121-0.778-7.59 1.89-13.16 6.087-16.684 12.618-1.089 1.32-1.761 2.435-2.021 3.238-1.346-6.527-2.592-13.003-3.68-19.534-5.959-27.1-15.441-54.615-28.447-82.569-1.63-3.212-3.264-6.218-4.87-8.937l29.278-17.879c5.959-4.04 8.808-9.092 8.547-15.077 0-7.281-2.072-13.937-6.112-19.922-4.354-5.96-9.067-10.132-14.251-12.594-5.958-2.978-11.918-2.433-17.876 1.607l-27.255 17.098a467.33 467.33 0 0 1-10.985-14.664c-15.44-18.393-31.038-34.148-46.763-47.151-5.702-4.328-11.79-5.545-18.293-3.653-5.983 2.174-11.113 6.09-15.465 11.787-4.874 6.246-7.723 12.775-8.551 19.537-0.778 6.76 1.762 12.331 7.745 16.656 18.421 15.466 34.276 30.495 47.596 45.186l-27.673 17.489c-11.655 9.739-19.117 18.782-22.384 27.227-2.979 8.654-2.278 18.419 2.047 29.25 7.593 16.012 16.814 46.375 27.644 91.118a1089.345 1089.345 0 0 0 4.873 24.379h-17.877c-7.308 0-12.749 2.879-16.272 8.551-3.263 4.895-4.87 10.984-4.87 18.316 0 7.564 1.764 14.224 5.285 19.922 3.266 5.441 8.55 8.162 15.857 8.162h26.452c2.148 16.531 3.367 31.71 3.65 45.522 1.35 7.045 5.001 11.526 10.986 13.419 6.503 1.891 13.42 2.304 20.726 1.218 7.047-1.583 12.748-4.587 17.101-8.965 4.611-4.844 6.088-10.672 4.455-17.463-0.828-9.221-2.174-20.467-4.042-33.731h39.847c13.268-0.827 22.074-4.637 26.427-11.398 4.87-7.875 6.503-18.835 4.87-32.93a1010.173 1010.173 0 0 0-2.85-34.613c31.737 44.483 53.682 85.135 65.911 122.025 1.867 6.764 5.289 11.53 10.16 14.225zM388.99 311.067c-11.112-44.199-19.662-74.432-25.621-90.701-1.089-5.676-1.503-10.184-1.219-13.421 0.805-3.291 4.172-7.047 10.157-11.376l15.467-9.766c1.089 2.436 2.174 4.613 3.263 6.452 8.938 18.499 15.96 38.81 21.143 61.038 5.414 23.059 8.938 46.533 10.571 70.367-0.261 2.436-0.936 4.172-2.021 5.285-1.633 1.088-4.481 1.605-8.55 1.605h-19.536a343.782 343.782 0 0 1-3.654-19.483z m298.511-93.553v-141.95c0-13.263-6.656-19.897-19.924-19.897h-169.59c-13.292 0-19.948 6.634-19.948 19.897v141.95c0 13.266 6.656 19.925 19.948 19.925h169.591c13.267-0.001 19.923-6.659 19.923-19.925z m-150.057-34.952c-2.979-0.282-4.479-1.811-4.479-4.504v-63.035c0.254-2.98 1.76-4.457 4.479-4.457h90.705c2.952 0.233 4.457 1.738 4.457 4.457v63.035c-0.26 2.98-1.765 4.504-4.457 4.504h-90.705z"  horiz-adv-x="1024" />

    
    <glyph glyph-name="enter" unicode="&#58898;" d="M413.866667 123.733333a25.6 25.6 0 0 0-18.090667 43.690667l195.242667 195.242667-195.242667 195.242666a25.6 25.6 0 0 0 36.181333 36.181334l231.424-231.424-231.424-231.424a25.6 25.6 0 0 0-18.090666-7.509334z"  horiz-adv-x="1024" />

    
    <glyph glyph-name="biyan" unicode="&#58880;" d="M954.4 540.9c9.6 14.4 6.5 33.6-6.5 44.8-14.4 11.2-33.6 8-44.8-6.5-1.6-1.6-179.5-211.5-391-211.5-205.1 0-391 211.5-392.6 213.1-11.2 12.8-32 14.4-44.8 3.2-12.8-11.2-14.4-32-3.2-44.8 3.2-4.8 41.6-48.1 102.5-96.2l-81.7-84.9c-12.8-12.8-11.2-33.6 1.6-44.8 3.2-6.5 11.2-9.6 19.2-9.6s16.1 3.2 22.4 9.6l88.2 91.3c41.6-28.9 91.3-56.1 145.8-75.3l-33.6-113.7c-4.8-17.7 4.8-35.3 22.4-40.1h9.6c14.4 0 27.3 9.6 30.4 24L432 313.3c25.7-4.8 52.9-8 80.1-8 27.3 0 54.4 3.2 80.1 8l33.6-112.2c3.2-14.4 17.7-24 30.4-24 3.2 0 6.5 0 8 1.6 17.7 4.8 27.3 22.4 22.4 40.1L653 331c54.4 19.2 104.1 46.5 145.8 75.3l86.6-89.8c6.5-6.5 14.4-9.6 22.4-9.6s16.1 3.2 22.4 9.6c12.8 12.8 12.8 32 1.6 44.8l-81.7 84.9c65.8 48.3 104.3 94.7 104.3 94.7z"  horiz-adv-x="1024" />

    
    <glyph glyph-name="hand" unicode="&#58900;" d="M823.5 654.3l-2.8-0.1c-11.3-0.3-22.3-2.7-32.7-7.2l-7.1-3v52.7c0 50.2-40.9 91.1-91.1 91.1-15.3 0-30.4-3.9-43.7-11.2l-4.8-2.6-2.3 5c-14.8 32.4-47.3 53.4-82.9 53.4s-68.1-20.9-82.9-53.3l-2.3-5-4.8 2.6c-13.3 7.3-28.3 11.1-43.5 11.1h-0.1c-50.2 0-91.1-40.9-91.1-91.1v-320.9l-56.1 97.3c-11.9 21.7-31.3 37.2-54.7 43.5-7.4 2-14.9 3-22.4 3-15.5 0-30.9-4.2-44.3-12.2-41.3-24.8-57.1-80.7-35.1-124.7 8.5-17.5 41-83.4 118.5-238.4 42-83.9 88-143.8 136.9-178.3 38.7-27.2 65.6-28.6 70.6-28.6h222.7c38.3 0 74 12.5 106 37.1 30 23 55.9 56.3 77.2 98.9 41.8 83.5 63.8 199 63.8 333.9v155.9c0.1 50.2-40.8 91.1-91 91.1zM869 407.2c0-127.9-20.4-236.3-59-313.5-25.3-50.5-70.5-110.8-142.5-110.8h-222c-4.4 0.5-22.9 3.5-49.7 23.6-28.3 21.2-71.8 65.9-117.8 158.1-82 163.9-112.8 226.7-118.1 237.6l-0.9 1.8c-10.7 23-2.5 51.8 18.3 64.2 9.3 5.6 20.8 7.2 31.3 4.4 11.4-3.1 20.9-10.8 26.8-21.5l69.7-120.8c14-25.7 29.6-36.4 46.5-32.1 6.3 1.6 25.4 6.4 25.4 50.5v348.1c0 25.1 20.5 45.6 45.6 45.6s45.6-20.5 45.6-45.6v-289.6c0-11.7 9.5-21.2 21.2-21.2s21.2 9.5 21.2 21.2v334.1c0 25.1 20.5 45.6 45.6 45.6s45.6-20.5 45.6-45.6v-334.1c0-11.7 9.5-21.2 21.2-21.2s21.2 9.5 21.2 21.2v289.6c0 25.1 20.5 45.6 45.6 45.6s45.6-20.5 45.6-45.6v-334.1c0-11.7 9.5-21.2 21.2-21.2s21.2 9.5 21.2 21.2v200.4c0 25.1 20.5 45.6 45.6 45.6s45.6-20.5 45.6-45.6v-155.9z"  horiz-adv-x="1024" />

    
    <glyph glyph-name="zhuyi" unicode="&#59667;" d="M851.6608 493.3632c-18.5344 43.9296-45.1584 83.3536-78.9504 117.1456-33.8944 33.8944-73.3184 60.416-117.1456 79.0528-45.4656 19.2512-93.696 28.9792-143.4624 28.9792-49.7664 0-97.9968-9.728-143.4624-28.9792-43.9296-18.5344-83.3536-45.1584-117.1456-79.0528-33.8944-33.792-60.416-73.216-78.9504-117.1456-19.2512-45.4656-28.9792-93.696-28.9792-143.4624 0-49.7664 9.728-97.9968 28.9792-143.4624 18.5344-43.8272 45.1584-83.3536 78.9504-117.1456 33.8944-33.792 73.3184-60.416 117.1456-78.9504 45.4656-19.2512 93.696-28.9792 143.4624-28.9792 49.7664 0 97.9968 9.728 143.4624 28.9792 43.9296 18.5344 83.3536 45.1584 117.1456 78.9504 33.792 33.792 60.416 73.3184 78.9504 117.1456C870.912 251.904 880.64 300.2368 880.64 349.9008s-9.728 97.9968-28.9792 143.4624zM749.2608 112.64c-63.3856-63.3856-147.6608-98.304-237.2608-98.304s-173.8752 34.9184-237.2608 98.304c-63.3856 63.3856-98.304 147.6608-98.304 237.2608s34.9184 173.8752 98.304 237.2608c63.3856 63.3856 147.6608 98.304 237.2608 98.304s173.8752-34.9184 237.2608-98.304c63.3856-63.3856 98.304-147.6608 98.304-237.2608 0-89.7024-34.9184-173.8752-98.304-237.2608zM512 170.1888m-36.864 0a36.864 36.864 0 1 1 73.728 0 36.864 36.864 0 1 1-73.728 0ZM497.664 242.688h28.672c6.7584 0 12.288 5.5296 12.288 12.288l8.192 271.0528c0 13.0048-10.6496 23.6544-23.6544 23.6544H500.736c-13.0048 0-23.6544-10.6496-23.6544-23.6544l8.192-271.0528c0.1024-6.7584 5.632-12.288 12.3904-12.288z"  horiz-adv-x="1024" />

    
    <glyph glyph-name="duihao3" unicode="&#59070;" d="M422.781 115.799c-15.18 0-30.3 5.82-41.881 17.401l-236.939 237.899c-23.101 23.221-23.101 60.9 0 84.121 23.161 23.221 60.66 23.221 83.761 0l195.059-195.84 372.721 374.219c23.101 23.28 60.601 23.28 83.761 0 23.101-23.221 23.101-60.841 0-84.060l-414.601-416.34c-11.581-11.581-26.761-17.401-41.878-17.401z"  horiz-adv-x="1024" />

    
    <glyph glyph-name="yanzhengma" unicode="&#58886;" d="M377.096881 81.770763h-112.993411c-91.202834 0-165.123671 73.932736-165.12367 165.167302V675.481648c0 91.254399 73.979011 165.16598 165.433057 165.165979H804.734781c91.378682 0 165.433057-73.944635 165.433057-165.165979v-428.538294c0-91.337695-73.832251-165.167302-165.378848-165.167302H663.468228a27.686103 27.686103 0 0 1-19.969957-8.516055L495.307548-81.16076c-10.586563-11.032132-10.22429-28.553442 0.802553-39.136038 11.03081-10.582596 28.546831-10.222968 39.133394 0.805197l148.190723 154.42208-19.964668-8.512088h141.324728c122.118982 0 220.731221 98.622816 220.731221 220.522319V675.481648c0 121.809596-98.850228 220.519675-220.785429 220.519674H264.412857C142.402292 896.001322 43.631394 797.319009 43.631394 675.481648v-428.538294c0-121.801663 98.698179-220.522319 220.476043-220.522319h112.99341c15.285532 0 27.676847 12.392638 27.676847 27.67817s-12.395282 27.671559-27.680813 27.671558zM283.639757 536.215528h424.657744c15.282887 0 27.67817 12.389994 27.67817 27.675525 0 15.286854-12.395282 27.676847-27.67817 27.676847H283.639757c-15.285532 0-27.676847-12.389994-27.676847-27.676847 0-15.285532 12.391316-27.675525 27.676847-27.675525zM283.639757 363.238206H785.510524c15.285532 0 27.675525 12.395282 27.675526 27.675525 0 15.285532-12.389994 27.675525-27.675526 27.675526H283.639757c-15.285532 0-27.676847-12.389994-27.676847-27.675526 0-15.280243 12.391316-27.675525 27.676847-27.675525z"  horiz-adv-x="1334" />

    
    <glyph glyph-name="ziliao" unicode="&#58955;" d="M213.324 798.828h597.278l56.43-479.028 70.862 8.27-63.118 536.455H149.268L86.148 328.07l70.862-8.27zM271.75 744.393h480.544v-60.065H271.749v60.065zM271.75 624.263h480.544v-60.066H271.749v60.066zM271.75 504.131h480.544v-60.065H271.749v60.065zM271.75 384h480.544v-60.065H271.749V384zM962.532 263.868H61.512c-16.543 0-25.811-12.786-20.532-28.478l101.13-303.437c5.162-15.69 22.995-28.477 39.537-28.477h660.749c16.542 0 34.257 12.787 39.537 28.477l101.129 303.379c5.163 15.75-3.988 28.536-20.53 28.536z m-330.374-120.13H391.885v60.066h240.273v-60.066z"  horiz-adv-x="1024" />

    
    <glyph glyph-name="bianji1" unicode="&#59124;" d="M815.53-63.47H195.138c-32.114 0-65.541 14.132-90.842 39.432-25.299 25.3-40.307 57.85-40.307 89.965V710.78c0 33.148 15.633 63.797 43.115 85.248 24.101 18.814 55.688 29.754 88.035 29.754h336.699c16.888 0 30.58-13.81 30.58-30.7s-13.692-30.699-30.58-30.699h-336.7c-33.18 0-69.75-21.06-69.75-53.603v-644.855c0-33.53 36.22-67.998 69.75-67.998H815.53c32.542 0 51.755 34.817 51.755 67.998v332.62c0 16.889 13.81 30.58 30.699 30.58s30.7-13.691 30.7-30.58v-332.62c0-32.348-10.016-63.056-28.828-87.158-21.452-27.482-51.177-42.237-84.326-42.237zM488.65 345.787c-9.913 0-19.826 3.782-27.39 11.346-15.126 15.127-15.126 39.65 0 54.777L870.335 820.983c15.127 15.127 39.652 15.127 54.779 0s15.126-39.65 0-54.776L516.039 357.133c-7.563-7.564-17.477-11.346-27.389-11.346z"  horiz-adv-x="1024" />

    
    <glyph glyph-name="dianhua" unicode="&#58882;" d="M649.6 121.6c-67.2 3.2-150.4 64-230.4 160l-28.8 35.2c-80 96-121.6 192-112 252.8 6.4 44.8 70.4 80 108.8 80 19.2 0 25.6-9.6 25.6-16 22.4-38.4 48-102.4 48-124.8v-3.2c-3.2-12.8-16-19.2-22.4-22.4-12.8-6.4-19.2-9.6-19.2-22.4 0-3.2 3.2-22.4 54.4-86.4l22.4-28.8c54.4-64 70.4-70.4 73.6-70.4 12.8-3.2 19.2 3.2 28.8 12.8 6.4 6.4 16 16 28.8 19.2h6.4c22.4-6.4 83.2-41.6 115.2-70.4 6.4-3.2 12.8-12.8 6.4-35.2-19.2-32-64-80-105.6-80M512 864c265.6 0 480-214.4 480-480s-214.4-480-480-480-480 214.4-480 480 214.4 480 480 480M512 896c-281.6 0-512-230.4-512-512s230.4-512 512-512 512 230.4 512 512-230.4 512-512 512z"  horiz-adv-x="1024" />

    
    <glyph glyph-name="mima" unicode="&#58881;" d="M894.8 243.5c12.9 0 23.3 10.7 23.3 23.8V476.5c0 50-39.7 90.5-88.6 90.5h-80.3v0.1h-8.4v66.2c0 109.6-86.9 198.5-194 198.5H508c-106.5 0-192.8-87.7-193.9-196.3 0-0.2-0.1-0.3-0.1-0.5 0-0.1 0.1-0.2 0.1-0.3 0-0.4-0.1-0.9-0.1-1.3h0.3c0.9-12.9 11.4-23.2 24.5-23.2 13.2 0 23.6 10.3 24.5 23.2h0.2c3.7 82.8 67.4 148.9 145.6 148.9h36.5c80.6 0 146-70 146-156.4v-58.6h36.3v-0.1H348.6v0.1h-52.5v-0.1H194.5c-48.9 0-88.6-40.5-88.6-90.5v-449.8c0-50 39.7-90.5 88.6-90.5h635c48.9 0 88.6 40.5 88.6 90.5v26.2c-0.1 13.1-10.5 23.7-23.3 23.7s-23.2-10.6-23.3-23.7v-21.4c0-26.3-20.9-47.6-46.6-47.6H199.2c-25.8 0-46.6 21.3-46.6 47.6V471.8c0 26.3 20.9 47.6 46.6 47.6h625.7c25.8 0 46.6-21.3 46.6-47.6v-204.5c0-13.2 10.4-23.8 23.3-23.8z m-374.4-4.8h-33.6c-4.7 0-8.4-3.8-8.4-8.5v-101.6c0-4.7 3.8-8.5 8.4-8.5h33.6c1 0 1.9 0.2 2.8 0.6 69 5.7 123.3 63.9 123.3 134.9 0 74.8-60.2 135.5-134.5 135.5-70.5 0-128.2-54.7-133.9-124.2-0.3-0.9-0.5-1.8-0.5-2.8v-33.9c0-4.7 3.7-8.5 8.4-8.5h33.6c4.6 0 8.4 3.8 8.4 8.5v8.5c-1.1 5.5 0 11.1 0 16.9 0 46.8 37.6 84.7 84 84.7s84.1-37.9 84.1-84.7c0-41-28.9-75.1-67.3-83v57.6c0 4.7-3.8 8.5-8.4 8.5z"  horiz-adv-x="1024" />

    
    <glyph glyph-name="xuanzhong" unicode="&#59081;" d="M818.20032 865.26848c263.52 1.83552 481.88544-213.84448 484.89984-479.00288 3.07968-267.1232-211.28704-483.5904-481.75488-486.27584-266.99392-2.752-485.94944 210.37056-487.26016 474.21696-1.18016 273.21984 211.68 489.22624 484.1152 491.06176z m1.44128-42.336c-241.50016 0.45824-442.23744-197.1328-444.33408-437.25696-2.09664-243.07072 198.31168-445.12 441.90976-445.31584 242.2208-0.19584 443.67872 198.11456 444.00512 437.05856 0.26112 245.36704-197.72288 445.05472-441.5808 445.51424zM1105.312 530.77248c-6.35776-7.99488-14.7456-21.10208-25.49376-31.91552-97.64864-98.23872-196.41088-195.36256-293.2736-294.38848-28.63872-29.29536-48.95488-28.70528-76.7424 1.30944-51.77344 55.70688-106.95552 108.1344-160.3008 162.39872-10.48576 10.68288-27.52512 24.24832-13.632 39.25632 17.4976 19.00544 31.45728-0.85248 43.31904-12.45184 44.56448-43.71328 89.8496-86.83392 132.38272-132.448 28.24576-30.40896 48.69376-27.32928 76.54656 1.44128 88.08064 91.1616 178.38848 180.224 268.10752 269.74592 10.68288 10.68288 20.1856 25.55904 38.86336 20.57856 8.192-2.09536 12.64896-8.64896 10.22336-23.5264z"  horiz-adv-x="1638" />

    
    <glyph glyph-name="VIP" unicode="&#58896;" d="M982.016 564.032c-21.824 24.96-157.056 184.64-208.704 240.32-15.936 17.216-27.776 29.12-52.16 30.08-24.384 0.896-417.408 0-417.408 0-13.44 0-30.72-3.136-52.928-29.12C199.04 744.64 82.24 610.88 42.88 564.032c-26.688-30.912-30.08-74.88 0-120.128 64-74.56 240.32-276.8 417.408-480.64 25.152-28.992 40.96-30.08 52.16-30.08 10.944 0 26.496 0.512 52.16 30.08 175.36 201.92 343.744 394.944 417.344 480.64 24.896 30.016 29.568 84.544 0.064 120.128z m-52.16-90.112c-58.816-68.544-235.52-264.896-375.488-426.624-20.48-23.616-32.896-24-41.6-24-8.896 0-21.504 0.896-41.6 24-141.312 163.2-324.992 366.976-376.064 426.624-14.272 14.592-13.952 39.104 0 60.096C126.464 571.52 236.16 696 277.632 744.256c30.784 35.904 57.792 30.08 68.544 30.08h333.056c40 0 49.472-8.832 67.968-30.08a1978261.34 1978261.34 0 0 0 182.656-210.24c15.36-21.952 10.752-42.688 0-60.096z m-140.352 60.096h-98.816c-5.44 0-13.312-0.832-19.84-11.008L512.768 300.16c-0.128-0.128-0.192-0.512-0.32-0.768v0.832l-158.336 222.72c-6.528 10.24-14.336 11.008-19.776 11.008h-98.944c-5.44 0-9.92-4.928-9.92-11.008v-54.848c0-6.08 4.416-11.008 9.92-11.008h9.536c14.272 0 13.184-2.688 20.096-11.008 49.472-67.264 247.36-332.544 247.36-332.544v1.152c0.128-0.384 0.192-0.832 0.32-1.152 0 0 197.632 265.344 247.168 332.544 6.848 8.256 5.888 11.008 20.032 11.008h9.472c5.44 0 9.856 4.992 9.856 11.008v54.848c0.128 6.144-4.288 11.072-9.728 11.072z"  horiz-adv-x="1024" />

    
    <glyph glyph-name="jianjie" unicode="&#59220;" d="M818.688 870.4H205.312c-58.88 0-106.496-48.128-106.496-107.008v-769.536c0-53.248 43.008-96.256 96.256-96.256 15.872 0 31.744 4.096 46.592 12.288L512 62.464l270.848-152.576c14.848-8.192 30.208-12.288 46.592-12.288 53.248 0 96.256 43.008 96.256 96.256V763.392C925.184 822.272 877.568 870.4 818.688 870.4z m60.416-876.544c0-27.648-22.528-50.176-50.176-50.176-8.192 0-16.384 2.048-24.064 6.656L512 115.2 219.136-50.176c-7.68-4.096-15.872-6.656-24.064-6.656-27.648 0-50.176 22.528-50.176 50.176V763.392c0 33.792 27.136 61.44 60.928 61.44H819.2c33.28 0 60.416-27.648 60.416-61.44v-769.536h-0.512zM305.152 617.984v-46.08h413.184v46.08H305.152z m0-252.416h413.184v46.08H305.152v-46.08z"  horiz-adv-x="1024" />

    
    <glyph glyph-name="qushi" unicode="&#58899;" d="M848.81856 791.232L766.00256 874.24A12.8 12.8 0 0 0 775.09056 896h216.96a32 32 0 0 0 32-32v-217.344a12.8 12.8 0 0 0-21.888-9.024l-63.04 63.104-274.688-275.136a63.808 63.808 0 0 0-90.304 0L395.57056 604.352 109.10656 317.44a63.808 63.808 0 0 0-90.368 0 64.064 64.064 0 0 0 0 90.496l331.712 332.16a63.808 63.808 0 0 0 90.368 0l178.432-178.688 229.568 229.824zM117.29856 256h106.368a32 32 0 0 0 32-32V-128H85.17056v352a32 32 0 0 0 32 32z m255.552 213.312h106.368a32 32 0 0 0 32-32V-128H340.85056V437.312a32 32 0 0 0 32 32z m255.616-128h106.368a32 32 0 0 0 32-32V-128H596.46656V309.312a32 32 0 0 0 32 32z m255.552 213.376h106.432a32 32 0 0 0 32-32V-128h-170.432V522.688a32 32 0 0 0 32 32z"  horiz-adv-x="1024" />

    
    <glyph glyph-name="rule" unicode="&#58980;" d="M512 853.504c-259.584 0-469.504-209.92-469.504-469.504s210.432-469.504 469.504-469.504 469.504 210.432 469.504 469.504-209.92 469.504-469.504 469.504z m0-887.296c-230.912 0-417.792 187.392-417.792 417.792 0 230.912 187.392 417.792 417.792 417.792S929.792 614.4 929.792 384s-186.88-417.792-417.792-417.792z m16.384 695.808c-52.224 0-93.184-15.872-122.88-48.128-28.672-30.72-43.008-71.68-43.008-122.88h58.368c0 35.84 8.192 63.488 23.552 83.968 18.432 24.064 45.568 35.84 81.408 35.84 30.72 0 54.784-8.192 72.704-25.6 15.872-15.872 24.064-38.912 24.064-68.096 0-20.48-7.168-39.424-20.992-57.856-5.12-5.632-13.312-14.848-25.088-26.112-39.424-35.328-64.512-62.976-73.728-84.992-9.728-18.432-13.824-39.424-13.824-63.488v-16.896h59.392v16.896c0 19.968 4.608 37.888 13.824 54.272 7.168 13.312 18.432 26.112 33.792 39.424 32.256 28.672 52.736 47.616 59.904 56.32 17.408 24.064 27.136 52.736 27.136 85.504 0 44.032-13.824 78.336-40.96 103.424-28.672 26.112-67.072 38.4-113.664 38.4z m-10.24-445.952c-13.312 0-23.552-3.584-31.744-12.288-8.704-8.192-13.312-18.432-13.312-30.72s4.608-22.528 13.312-31.232c8.192-8.192 18.432-12.288 31.744-12.288 11.776 0 22.528 4.608 31.232 12.288 8.192 8.192 12.288 18.432 12.288 31.232 0 12.288-4.608 22.528-12.288 30.72-8.704 8.704-18.944 12.288-31.232 12.288z"  horiz-adv-x="1024" />

    
    <glyph glyph-name="wenjuan" unicode="&#58897;" d="M481.28 158.72h56.32v-112.64h-56.32zM706.56 460.8c0 51.2-20.48 102.4-56.32 138.24s-87.04 56.32-138.24 56.32-102.4-20.48-138.24-56.32-56.32-87.04-56.32-138.24h56.32c0 76.8 61.44 138.24 138.24 138.24s138.24-61.44 138.24-138.24-61.44-138.24-138.24-138.24h-25.6v-107.52h56.32v56.32c40.96 5.12 81.92 25.6 107.52 56.32 35.84 35.84 56.32 81.92 56.32 133.12zM875.52 215.04c15.36 0 25.6 10.24 25.6 25.6V537.6c0 30.72-10.24 56.32-30.72 76.8l-174.08 174.08c-20.48 20.48-51.2 30.72-76.8 30.72h-368.64c-66.56 0-122.88-56.32-122.88-122.88v-645.12c0-66.56 56.32-122.88 122.88-122.88h532.48c66.56 0 122.88 56.32 122.88 122.88 0 15.36 0 30.72-25.6 30.72-20.48 0-25.6-15.36-25.6-30.72 0-35.84-35.84-76.8-71.68-76.8h-532.48c-35.84 0-76.8 40.96-76.8 76.8v645.12c0 35.84 46.08 71.68 81.92 71.68h368.64c15.36 0 25.6-5.12 35.84-15.36l179.2-174.08c10.24-10.24 15.36-30.72 15.36-46.08v-296.96c-5.12-5.12 5.12-20.48 20.48-20.48z"  horiz-adv-x="1024" />

    
    <glyph glyph-name="weikaishi" unicode="&#59187;" d="M856.956545 761.807247c0 13.972057-11.368106 25.340163-25.340163 25.340162s-25.340163-11.368106-25.340163-25.340162v-110.437281c0-112.416283-68.937742-214.766436-175.632773-260.75965-9.299825-4.002645-15.311232-13.131353-15.311232-23.264442s6.011407-19.261797 15.303792-23.264442c106.695031-45.985774 175.640213-148.335927 175.640213-260.752211v-86.689248c0-13.972057 11.368106-25.340163 25.340163-25.340163s25.340163 11.368106 25.340163 25.340163v86.689248c0 109.075786-55.025204 211.805372-147.197628 274.806106l-13.481027 9.210547 13.481027 9.217986c92.172425 63.000734 147.197629 165.73032 147.197628 274.806106V761.807247zM74.008007 845.327114h875.983986a25.369922 25.369922 0 0 1 25.340163 25.340163 25.369922 25.369922 0 0 1-25.340163 25.340163H74.008007A25.369922 25.369922 0 0 1 48.667844 870.667277a25.369922 25.369922 0 0 1 25.340163-25.340163M167.043455-3.367467c0-13.972057 11.368106-25.340163 25.340163-25.340162s25.340163 11.368106 25.340163 25.340162v86.681808c0 112.423723 68.937742 214.773876 175.632773 260.759651 9.299825 4.002645 15.311232 13.131353 15.311232 23.264442s-6.011407 19.269237-15.303792 23.271882h-0.00744c-106.695031 45.985774-175.632773 148.343367-175.632773 260.75965V761.799807c0 13.979497-11.368106 25.340163-25.340163 25.340163s-25.340163-11.360666-25.340163-25.340163v-110.429841c0-109.075786 55.025204-211.812812 147.205068-274.820986l13.473587-9.210546-13.481027-9.210547c-92.172425-63.000734-147.197629-165.737759-147.197628-274.813546v-86.681808zM595.876981 553.989639l-0.01488 0.00744c-11.494584 7.588657-27.222447 4.374638-35.04174-7.172025-0.833264-1.205257-19.604031-27.988753-49.184914-27.988753-28.903856 0-46.275929 24.774734-48.165653 27.594441a25.570799 25.570799 0 0 1-21.605353 11.926095c-4.553194 0-9.143588-1.227577-13.265271-3.794328a25.183926 25.183926 0 0 1-11.316027-15.765064 25.146727 25.146727 0 0 1 3.147061-19.127879c11.896336-19.13532 44.475483-51.51359 91.205243-51.51359 46.558643 0 79.591621 32.192274 91.778112 51.215995 7.491939 11.7029 4.181201 26.909973-7.536578 34.617668M654.428678 717.465681a25.369922 25.369922 0 0 1-25.340163-25.340162v-35.60717a25.369922 25.369922 0 0 1 25.340163-25.340163 25.369922 25.369922 0 0 1 25.340163 25.340163v35.60717a25.369922 25.369922 0 0 1-25.340163 25.340162M949.984554-128a25.369922 25.369922 0 0 1 25.340162 25.340163 25.369922 25.369922 0 0 1-25.340162 25.340163H74.008007a25.369922 25.369922 0 0 1-25.332723-25.340163 25.369922 25.369922 0 0 1 25.332723-25.340163h875.976547zM394.904045 656.518349v35.60717c0 13.972057-11.368106 25.340163-25.340163 25.340162s-25.340163-11.368106-25.340163-25.340162v-35.60717c0-13.972057 11.368106-25.340163 25.340163-25.340163s25.340163 11.368106 25.340163 25.340163"  horiz-adv-x="1024" />

    
    <glyph glyph-name="tijianxuzhi" unicode="&#59725;" d="M834.9186962453111 646.5646971713023h-49.16111141741568v90.86591030622591c0 46.001656956142185-37.40794082147827 83.40959777762046-83.40959777762046 83.40959777762046H183.56556450916565c-46.001656956142185 0-83.40959777762046-37.40794082147827-83.40959777762046-83.40959777762046v-693.0579306249555c0-46.001656956142185 37.40794082147827-83.40959777762046 83.40959777762046-83.40959777762046h651.3531317361451c46.001656956142185 0 83.40959777762046 37.40794082147827 83.40959777762046 83.40959777762046V563.0287212152308c0.1263781784509401 46.001656956142185-37.40794082147827 83.5359759560714-83.40959777762046 83.5359759560714zM682.6329912119281 8.860408707858596H183.56556450916565c-19.588617659895707 0-35.38588996626322 15.923650484818449-35.38588996626322 35.38588996626322V737.4306074775284c0 19.588617659895707 15.923650484818449 35.38588996626322 35.38588996626322 35.38588996626322h518.6560443626582c19.588617659895707 0 35.38588996626322-15.923650484818449 35.38588996626322-35.38588996626322v-693.0579306249555c0-19.588617659895707-15.923650484818449-35.38588996626322-35.38588996626322-35.38588996626322H682.6329912119281z m187.797973178097 35.512268144714184c0-19.588617659895707-15.923650484818449-35.38588996626322-35.38588996626322-35.38588996626322h-57.122936659824916c5.055127138037604 10.742145168329907 7.961825242409224 22.74807212116922 7.961825242409224 35.38588996626322V598.5409893599452h49.16111141741568c19.588617659895707 0 35.38588996626322-15.923650484818449 35.38588996626322-35.38588996626322v-518.7824225411091zM618.0537420234974 630.5146685080332H267.733431357492c-14.912625057210933 0-27.044930188501176-12.13230513129025-27.044930188501176-27.044930188501176 0-14.912625057210933 12.13230513129025-27.044930188501176 27.044930188501176-27.044930188501176h350.32031066600587c14.912625057210933 0 27.044930188501176 12.13230513129025 27.044930188501176 27.044930188501176 0 14.912625057210933-12.13230513129025 27.044930188501176-27.044930188501176 27.044930188501176zM618.0537420234974 419.8422450303158H267.733431357492c-14.912625057210933 0-27.044930188501176-12.13230513129025-27.044930188501176-27.044930188501176s12.13230513129025-27.044930188501176 27.044930188501176-27.044930188501176h350.32031066600587c14.912625057210933 0 27.044930188501176 12.13230513129025 27.044930188501176 27.044930188501176s-12.13230513129025 27.044930188501176-27.044930188501176 27.044930188501176zM618.0537420234974 209.04344337414818H267.733431357492c-14.912625057210933 0-27.044930188501176-12.13230513129025-27.044930188501176-27.044930188501176 0-14.912625057210933 12.13230513129025-27.044930188501176 27.044930188501176-27.044930188501176h350.32031066600587c14.912625057210933 0 27.044930188501176 12.13230513129025 27.044930188501176 27.044930188501176 0 15.039003235661873-12.13230513129025 27.044930188501176-27.044930188501176 27.044930188501176z"  horiz-adv-x="1024" />

    
    <glyph glyph-name="changyonggoupiaorenshanchu" unicode="&#58949;" d="M96 576a32 32 0 1 0 0 64h832a32 32 0 0 0 0-64H96z m736 0h64v-448a160 160 0 0 0-160-160H288a160 160 0 0 0-160 160V576h64v-96H128v96h64v-448a96 96 0 0 1 96-96h448a96 96 0 0 1 96 96V576z m-512-112a32 32 0 0 0 64 0v-320a32 32 0 0 0-64 0v320z m320 0a32 32 0 0 0 64 0v-320a32 32 0 0 0-64 0v320zM288 640H224V704a96 96 0 0 0 96 96h384a96 96 0 0 0 96-96v-64h-64V672h64v-32h-64V704a32 32 0 0 1-32 32H320a32 32 0 0 1-32-32v-64z"  horiz-adv-x="1024" />

    
    <glyph glyph-name="shouhuodizhiyebianji" unicode="&#58950;" d="M896 399.104a25.6 25.6 0 0 0 51.2 0V128a179.2 179.2 0 0 0-179.2-179.2H256a179.2 179.2 0 0 0-179.2 179.2V640a179.2 179.2 0 0 0 179.2 179.2h313.1392a25.6 25.6 0 0 0 0-51.2H256a128 128 0 0 1-128-128v-512a128 128 0 0 1 128-128h512a128 128 0 0 1 128 128V399.104z m-5.9392 373.5296a25.6 25.6 0 1 0 37.4784-34.8672L547.2 328.9088a25.6 25.6 0 0 0-37.4784 34.8672L890.0608 772.6336z"  horiz-adv-x="1024" />

    
    <glyph glyph-name="zhouqirenwu" unicode="&#58977;" d="M845.44 794.68544h-667.136c-42.496 0-76.99456-34.49344-76.99456-76.99456v-667.136c0-42.56256 34.49344-76.928 76.99456-76.928h667.136c42.41408-0.07168 76.86144 34.25792 76.928 76.67712V717.696c0 42.496-34.36544 76.98944-76.928 76.98944zM167.10144 740.73088h690.39104c12.39552 0 21.67808-10.12736 21.67808-22.52288v-96.31744H144.57344V718.208c0 12.39552 16.61952 22.52288 29.01504 22.52288h-6.48704zM856.09472 18.4832H167.6544a22.48704 22.48704 0 0 0-22.48704 22.49216V579.59424h733.4144v-538.61888c0-12.45184-16.52736-22.62016-28.96896-22.62016l6.48192 0.128z m-63.64672 345.10336h-273.73056c-11.392 0-20.54656 15.616-20.54656 26.94144a20.48 20.48 0 0 0 20.48 20.48h273.73056a20.48 20.48 0 0 0 20.48-20.48c0.06656-11.33056-9.088-26.94144-20.41344-26.94144z m0-157.37856h-273.73056a20.48 20.48 0 0 0-20.54656 20.41344v0.12288c0 11.33056 9.216 26.88 20.54656 26.88h273.664c11.32544 0 20.48-15.54944 20.48-26.88a20.352 20.352 0 0 0-20.16256-20.54144l-0.25088 0.00512z m0-116.352h-273.73056a20.48 20.48 0 0 0-20.54656 20.41344v0.128c0 11.33056 9.216 26.88 20.54656 26.88h273.664c11.32544 0 20.48-15.54944 20.48-26.88a20.41856 20.41856 0 0 0-20.28544-20.54144h-0.128z m-20.48 615.86944H833.536v-61.568h-61.56288V705.72544z m-123.19744 0h61.56288v-61.568h-61.56288V705.72544zM299.776 260.93056h61.568v-61.568H299.776v61.568z m0-116.29056h61.568v-61.568H299.776V144.64z m218.94656 561.08544h61.62944v-61.568h-61.62944V705.72544z m-182.14912-385.34144a20.77696 20.77696 0 0 0-14.40256 5.82656l-80.44544 78.592a20.55168 20.55168 0 0 0 28.73344 29.37856l63.04256-61.62944 101.376 146.432a20.54656 20.54656 0 0 0 33.792-23.35744l-115.2-166.4a20.59264 20.59264 0 0 0-14.976-8.76544l-1.92-0.0768z"  horiz-adv-x="1024" />

    
    <glyph glyph-name="anquanshezhi" unicode="&#58985;" d="M981.628594 301.704502l-94.239852-15.560534a388.721124 388.721124 0 0 0-41.421702-99.426696l55.521153-77.948777a40.691161 40.691161 0 0 0 0-57.712777l-57.566669-57.93194a40.764215 40.764215 0 0 0-57.785832 0l-78.094884 55.740316a388.501962 388.501962 0 0 0-99.061426-41.129486l-15.779696-94.970393a40.983377 40.983377 0 0 0-40.983377-40.764215h-81.820647a40.910323 40.910323 0 0 0-40.983377 40.983377l-15.779696 94.970393a385.506742 385.506742 0 0 0-99.061425 41.129486l-78.094885-55.740315a40.910323 40.910323 0 0 0-57.785832 0l-57.785831 57.785831a40.837269 40.837269 0 0 0 0 57.712778l55.594207 77.948776a381.123493 381.123493 0 0 0-41.275594 99.426696L40.983377 301.777556A40.983377 40.983377 0 0 0 0 342.687879V424.508525a40.910323 40.910323 0 0 0 40.983377 40.910324l94.239852 15.633587a394.492402 394.492402 0 0 0 41.275594 99.426696l-55.594207 77.875723a40.910323 40.910323 0 0 0 0 57.785831l57.785831 57.785832a40.910323 40.910323 0 0 0 57.785832 0l78.094885-55.740316a391.204965 391.204965 0 0 0 99.061425 41.129486l15.779696 94.970393a40.983377 40.983377 0 0 0 40.983377 40.983378h81.820647a41.494756 41.494756 0 0 0 40.983377-41.129486l15.779696-94.970393a386.602554 386.602554 0 0 0 99.061426-41.129486l78.094884 55.959478a40.910323 40.910323 0 0 0 57.785832 0l57.785831-57.785832a40.910323 40.910323 0 0 0 0-57.785831l-55.594207-77.875722a390.40137 390.40137 0 0 0 41.494757-99.426697l94.166797-15.633587a40.837269 40.837269 0 0 0 40.983377-40.910323v-81.820647a41.20254 41.20254 0 0 0-41.129485-40.983377zM511.37904 567.548548A184.0234 184.0234 0 1 1 695.256332 383.598202 184.169508 184.169508 0 0 1 511.37904 567.548548z"  horiz-adv-x="1024" />

    
    <glyph glyph-name="icon-test" unicode="&#58925;" d="M751.104 623.104C686.08 688.64 606.208 721.408 512 721.408s-174.08-32.768-239.104-98.304C207.36 558.08 174.592 478.208 174.592 384c0-90.112 32.768-168.96 98.304-236.032 65.536-67.584 145.408-101.376 239.104-101.376s174.08 33.792 239.104 101.376c65.536 67.584 98.304 146.432 98.304 236.032 0 94.208-32.768 174.08-98.304 239.104z m-47.104-428.544c-52.736-54.272-116.736-81.408-192-81.408s-139.264 27.136-192 81.408c-52.224 54.272-78.848 117.248-78.848 189.44 0 75.776 26.112 139.264 78.848 192S436.224 654.848 512 654.848s139.264-26.112 192-78.848c52.224-52.736 78.848-116.736 78.848-192 0-72.192-26.112-135.68-78.848-189.44z"  horiz-adv-x="1024" />

    


  </font>
</defs>
</svg>
